<?xml version="1.0" encoding="UTF-8"?>
<svg width="16" height="16" viewBox="0 0 16 16" xmlns="http://www.w3.org/2000/svg">
  <path d="M2 1C1.45 1 1 1.45 1 2V14C1 14.55 1.45 15 2 15H14C14.55 15 15 14.55 15 14V2C15 1.45 14.55 1 14 1H2Z"
    fill="#FFFFFF" />
  <path
    d="M2 1C1.45 1 1 1.45 1 2V14C1 14.55 1.45 15 2 15H14C14.55 15 15 14.55 15 14V2C15 1.45 14.55 1 14 1H2ZM2 2H14V14H2V2Z"
    fill="#000000" />
  <path d="M4 4H12V5H4V4ZM4 6H12V7H4V6ZM4 8H12V9H4V8ZM4 10H8V11H4V10Z" fill="#000000" />
</svg>