<svg xmlns="http://www.w3.org/2000/svg" version="1.1" xmlns:xlink="http://www.w3.org/1999/xlink" xmlns:svgjs="http://svgjs.dev/svgjs" viewBox="0 0 2400 800"><defs><linearGradient x1="50%" y1="0%" x2="50%" y2="100%" id="sssurf-grad"><stop stop-color="hsl(206, 75%, 49%)" stop-opacity="1" offset="0%"></stop><stop stop-color="hsl(331, 90%, 56%)" stop-opacity="1" offset="100%"></stop></linearGradient></defs><g fill="url(#sssurf-grad)" transform="matrix(1,0,0,1,10.8282470703125,225.10755157470703)"><path d="M-10,10C33.75,12.291666666666666,114.58333333333334,29.333333333333336,200,21C285.41666666666663,12.666666666666666,316.66666666666663,-33.75,400,-30C483.33333333333337,-26.25,516.6666666666666,34.208333333333336,600,39C683.3333333333334,43.791666666666664,716.6666666666666,-7.833333333333333,800,-7C883.3333333333334,-6.166666666666667,916.6666666666666,41.541666666666664,1000,43C1083.3333333333333,44.458333333333336,1116.6666666666667,3.958333333333333,1200,0C1283.3333333333333,-3.958333333333333,1316.6666666666667,26.5,1400,24C1483.3333333333333,21.5,1516.6666666666667,-14.916666666666668,1600,-12C1683.3333333333333,-9.083333333333332,1716.6666666666667,37.583333333333336,1800,38C1883.3333333333333,38.416666666666664,1916.6666666666667,-11.458333333333334,2000,-10C2083.3333333333335,-8.541666666666666,2118.75,40.833333333333336,2200,45C2281.25,49.166666666666664,2296.25,-63.95833333333333,2390,10C2483.75,83.95833333333333,3252.0833333333335,214.58333333333331,2650,400C2047.9166666666665,585.4166666666667,156.25,795.8333333333334,-500,900" transform="matrix(1,0,0,1,0,35)" opacity="0.05"></path><path d="M-10,10C33.75,12.291666666666666,114.58333333333334,29.333333333333336,200,21C285.41666666666663,12.666666666666666,316.66666666666663,-33.75,400,-30C483.33333333333337,-26.25,516.6666666666666,34.208333333333336,600,39C683.3333333333334,43.791666666666664,716.6666666666666,-7.833333333333333,800,-7C883.3333333333334,-6.166666666666667,916.6666666666666,41.541666666666664,1000,43C1083.3333333333333,44.458333333333336,1116.6666666666667,3.958333333333333,1200,0C1283.3333333333333,-3.958333333333333,1316.6666666666667,26.5,1400,24C1483.3333333333333,21.5,1516.6666666666667,-14.916666666666668,1600,-12C1683.3333333333333,-9.083333333333332,1716.6666666666667,37.583333333333336,1800,38C1883.3333333333333,38.416666666666664,1916.6666666666667,-11.458333333333334,2000,-10C2083.3333333333335,-8.541666666666666,2118.75,40.833333333333336,2200,45C2281.25,49.166666666666664,2296.25,-63.95833333333333,2390,10C2483.75,83.95833333333333,3252.0833333333335,214.58333333333331,2650,400C2047.9166666666665,585.4166666666667,156.25,795.8333333333334,-500,900" transform="matrix(1,0,0,1,0,70)" opacity="0.21"></path><path d="M-10,10C33.75,12.291666666666666,114.58333333333334,29.333333333333336,200,21C285.41666666666663,12.666666666666666,316.66666666666663,-33.75,400,-30C483.33333333333337,-26.25,516.6666666666666,34.208333333333336,600,39C683.3333333333334,43.791666666666664,716.6666666666666,-7.833333333333333,800,-7C883.3333333333334,-6.166666666666667,916.6666666666666,41.541666666666664,1000,43C1083.3333333333333,44.458333333333336,1116.6666666666667,3.958333333333333,1200,0C1283.3333333333333,-3.958333333333333,1316.6666666666667,26.5,1400,24C1483.3333333333333,21.5,1516.6666666666667,-14.916666666666668,1600,-12C1683.3333333333333,-9.083333333333332,1716.6666666666667,37.583333333333336,1800,38C1883.3333333333333,38.416666666666664,1916.6666666666667,-11.458333333333334,2000,-10C2083.3333333333335,-8.541666666666666,2118.75,40.833333333333336,2200,45C2281.25,49.166666666666664,2296.25,-63.95833333333333,2390,10C2483.75,83.95833333333333,3252.0833333333335,214.58333333333331,2650,400C2047.9166666666665,585.4166666666667,156.25,795.8333333333334,-500,900" transform="matrix(1,0,0,1,0,105)" opacity="0.37"></path><path d="M-10,10C33.75,12.291666666666666,114.58333333333334,29.333333333333336,200,21C285.41666666666663,12.666666666666666,316.66666666666663,-33.75,400,-30C483.33333333333337,-26.25,516.6666666666666,34.208333333333336,600,39C683.3333333333334,43.791666666666664,716.6666666666666,-7.833333333333333,800,-7C883.3333333333334,-6.166666666666667,916.6666666666666,41.541666666666664,1000,43C1083.3333333333333,44.458333333333336,1116.6666666666667,3.958333333333333,1200,0C1283.3333333333333,-3.958333333333333,1316.6666666666667,26.5,1400,24C1483.3333333333333,21.5,1516.6666666666667,-14.916666666666668,1600,-12C1683.3333333333333,-9.083333333333332,1716.6666666666667,37.583333333333336,1800,38C1883.3333333333333,38.416666666666664,1916.6666666666667,-11.458333333333334,2000,-10C2083.3333333333335,-8.541666666666666,2118.75,40.833333333333336,2200,45C2281.25,49.166666666666664,2296.25,-63.95833333333333,2390,10C2483.75,83.95833333333333,3252.0833333333335,214.58333333333331,2650,400C2047.9166666666665,585.4166666666667,156.25,795.8333333333334,-500,900" transform="matrix(1,0,0,1,0,140)" opacity="0.53"></path><path d="M-10,10C33.75,12.291666666666666,114.58333333333334,29.333333333333336,200,21C285.41666666666663,12.666666666666666,316.66666666666663,-33.75,400,-30C483.33333333333337,-26.25,516.6666666666666,34.208333333333336,600,39C683.3333333333334,43.791666666666664,716.6666666666666,-7.833333333333333,800,-7C883.3333333333334,-6.166666666666667,916.6666666666666,41.541666666666664,1000,43C1083.3333333333333,44.458333333333336,1116.6666666666667,3.958333333333333,1200,0C1283.3333333333333,-3.958333333333333,1316.6666666666667,26.5,1400,24C1483.3333333333333,21.5,1516.6666666666667,-14.916666666666668,1600,-12C1683.3333333333333,-9.083333333333332,1716.6666666666667,37.583333333333336,1800,38C1883.3333333333333,38.416666666666664,1916.6666666666667,-11.458333333333334,2000,-10C2083.3333333333335,-8.541666666666666,2118.75,40.833333333333336,2200,45C2281.25,49.166666666666664,2296.25,-63.95833333333333,2390,10C2483.75,83.95833333333333,3252.0833333333335,214.58333333333331,2650,400C2047.9166666666665,585.4166666666667,156.25,795.8333333333334,-500,900" transform="matrix(1,0,0,1,0,175)" opacity="0.68"></path><path d="M-10,10C33.75,12.291666666666666,114.58333333333334,29.333333333333336,200,21C285.41666666666663,12.666666666666666,316.66666666666663,-33.75,400,-30C483.33333333333337,-26.25,516.6666666666666,34.208333333333336,600,39C683.3333333333334,43.791666666666664,716.6666666666666,-7.833333333333333,800,-7C883.3333333333334,-6.166666666666667,916.6666666666666,41.541666666666664,1000,43C1083.3333333333333,44.458333333333336,1116.6666666666667,3.958333333333333,1200,0C1283.3333333333333,-3.958333333333333,1316.6666666666667,26.5,1400,24C1483.3333333333333,21.5,1516.6666666666667,-14.916666666666668,1600,-12C1683.3333333333333,-9.083333333333332,1716.6666666666667,37.583333333333336,1800,38C1883.3333333333333,38.416666666666664,1916.6666666666667,-11.458333333333334,2000,-10C2083.3333333333335,-8.541666666666666,2118.75,40.833333333333336,2200,45C2281.25,49.166666666666664,2296.25,-63.95833333333333,2390,10C2483.75,83.95833333333333,3252.0833333333335,214.58333333333331,2650,400C2047.9166666666665,585.4166666666667,156.25,795.8333333333334,-500,900" transform="matrix(1,0,0,1,0,210)" opacity="0.84"></path><path d="M-10,10C33.75,12.291666666666666,114.58333333333334,29.333333333333336,200,21C285.41666666666663,12.666666666666666,316.66666666666663,-33.75,400,-30C483.33333333333337,-26.25,516.6666666666666,34.208333333333336,600,39C683.3333333333334,43.791666666666664,716.6666666666666,-7.833333333333333,800,-7C883.3333333333334,-6.166666666666667,916.6666666666666,41.541666666666664,1000,43C1083.3333333333333,44.458333333333336,1116.6666666666667,3.958333333333333,1200,0C1283.3333333333333,-3.958333333333333,1316.6666666666667,26.5,1400,24C1483.3333333333333,21.5,1516.6666666666667,-14.916666666666668,1600,-12C1683.3333333333333,-9.083333333333332,1716.6666666666667,37.583333333333336,1800,38C1883.3333333333333,38.416666666666664,1916.6666666666667,-11.458333333333334,2000,-10C2083.3333333333335,-8.541666666666666,2118.75,40.833333333333336,2200,45C2281.25,49.166666666666664,2296.25,-63.95833333333333,2390,10C2483.75,83.95833333333333,3252.0833333333335,214.58333333333331,2650,400C2047.9166666666665,585.4166666666667,156.25,795.8333333333334,-500,900" transform="matrix(1,0,0,1,0,245)" opacity="1"></path></g></svg>
